<mxfile host="app.diagrams.net" modified="2024-05-17T06:35:35.609Z" agent="Mozilla/5.0 (Windows NT 10.0; Win64; x64) AppleWebKit/537.36 (KHTML, like Gecko) Chrome/124.0.0.0 Safari/537.36 Edg/124.0.0.0" version="24.4.3" etag="tkzS7_SRxoLsxyxYtcfo" type="github">
  <diagram name="Page-1" id="YYiUJsjGMlxIi73vG_1j">
    <mxGraphModel>
      <root>
        <mxCell id="0" />
        <mxCell id="1" parent="0" />
      </root>
    </mxGraphModel>
  </diagram>
</mxfile>
